<?xml version="1.0" encoding="UTF-8" standalone="no"?>
<!-- Created with Inkscape (http://www.inkscape.org/) -->

<svg
   width="14"
   height="14"
   viewBox="0 0 3.7041666 3.7041666"
   version="1.1"
   id="svg1"
   xmlns="http://www.w3.org/2000/svg"
   xmlns:svg="http://www.w3.org/2000/svg">
  <defs
     id="defs1" />
  <g
     id="layer1"
     transform="matrix(0.58359575,0,0,0.58359575,1.754896,1.7639515)">
    <path
       id="rect1"
       style="fill:#e5a822;stroke-width:1.06254;stroke-linejoin:round"
       d="m 1.8536336,0.28835449 c -0.5570683,0 -1.01389158,0.45475619 -1.01389158,1.01182451 V 1.5818156 H 0.75344238 A 0.21166666,0.21166666 0 0 0 0.54156901,1.793689 V 3.0396077 A 0.21166666,0.21166666 0 0 0 0.75344238,3.2514811 H 2.9507243 A 0.21166666,0.21166666 0 0 0 3.1625977,3.0396077 V 1.793689 A 0.21166666,0.21166666 0 0 0 2.9507243,1.5818156 H 1.1968262 V 1.300179 c 0,-0.36501475 0.2917927,-0.65680742 0.6568074,-0.65680742 0.3643697,5.107e-4 0.6557679,0.29243786 0.6552572,0.65680742 V 1.321366 H 2.8639079 V 1.300179 C 2.8646878,0.74375607 2.4100567,0.28913438 1.8536336,0.28835449 Z m -0.00155,1.70170491 a 0.2537441,0.2537441 0 0 1 0.2537313,0.2537313 0.2537441,0.2537441 0 0 1 -0.109554,0.208256 V 2.813265 A 0.14217615,0.17969784 0 0 1 1.8541504,2.993099 h -0.00413 A 0.14217615,0.17969784 0 0 1 1.7079061,2.813265 V 2.4520467 A 0.2537441,0.2537441 0 0 1 1.5983521,2.2437907 0.2537441,0.2537441 0 0 1 1.8520836,1.9900594 Z" />
  </g>
</svg>
