<?xml version="1.0" encoding="UTF-8" standalone="no"?>
<!-- Created with Inkscape (http://www.inkscape.org/) -->

<svg
   width="14"
   height="14"
   viewBox="0 0 3.7041666 3.7041666"
   version="1.1"
   id="svg1"
   xmlns="http://www.w3.org/2000/svg"
   xmlns:svg="http://www.w3.org/2000/svg">
  <defs
     id="defs1" />
  <g
     id="layer1">
    <path
       id="rect1"
       style="fill:#e9b034;stroke-width:1.34369;stroke-linejoin:round;stroke-opacity:0.996078"
       d="M 1.0293945,0.50022786 A 0.52916666,0.52916666 0 0 0 0.50022786,1.0293945 V 2.0727417 A 0.52916666,0.52916666 0 0 0 1.0293945,2.6019084 h 0.073381 V 1.631425 A 0.52916666,0.52916666 0 0 1 1.6319417,1.1022583 H 2.6013916 V 1.0293945 A 0.52916666,0.52916666 0 0 0 2.0722249,0.50022786 Z M 2.6013916,1.1022583 V 2.0727417 A 0.52916666,0.52916666 0 0 1 2.0722249,2.6019084 H 1.1027751 v 0.072864 A 0.52916666,0.52916666 0 0 0 1.6319417,3.2039388 H 2.6747721 A 0.52916666,0.52916666 0 0 0 3.2039388,2.6747721 V 1.631425 A 0.52916666,0.52916666 0 0 0 2.6747721,1.1022583 Z" />
    <path
       id="rect1-6"
       style="fill:#e9b034;stroke-width:1.21034;stroke-linejoin:round;stroke-opacity:0.996078"
       d="m 1.6563917,1.1785165 a 0.47665116,0.47665116 0 0 0 -0.075964,0.00672 L 1.186653,1.5790088 a 0.47665116,0.47665116 0 0 0 -0.00672,0.075964 v 0.141077 L 1.7974684,1.1785165 Z m 0.2682007,0 -0.7446574,0.7446574 v 0.210323 L 2.1349155,1.1785165 Z m 0.3374471,0 L 1.179935,2.260621 V 2.470944 L 2.4723626,1.1785165 Z M 2.5297234,1.2482797 1.2486647,2.5293384 H 1.4589878 L 2.5297234,1.4586027 Z m 0,0.3374471 -0.9436116,0.9436116 H 1.7964349 L 2.5297234,1.7960498 Z m 0,0.3374471 -0.6061645,0.6061645 h 0.1297078 a 0.47665116,0.47665116 0 0 0 0.0894,-0.00879 L 2.5209385,2.1422819 a 0.47665116,0.47665116 0 0 0 0.00878,-0.0894 z" />
  </g>
</svg>
