<?xml version="1.0" encoding="UTF-8" standalone="no"?>
<!-- Created with Inkscape (http://www.inkscape.org/) -->

<svg
   width="14"
   height="14"
   viewBox="0 0 3.7041666 3.7041666"
   version="1.1"
   id="svg1"
   xmlns="http://www.w3.org/2000/svg"
   xmlns:svg="http://www.w3.org/2000/svg">
  <defs
     id="defs1" />
  <g
     id="layer1">
    <path
       id="rect1"
       style="fill:#e5a822;fill-opacity:1;stroke-width:1.1281;stroke-linejoin:round"
       d="M 0.96583252,1.0495483 A 0.80262381,0.80262381 0 0 0 0.16329753,1.8520833 0.80262381,0.80262381 0 0 0 0.96583252,2.6546183 0.80262381,0.80262381 0 0 0 1.6986043,2.1791951 H 1.9688721 L 2.1342367,2.0138306 2.2996012,2.1791951 h 0.08785 L 2.552299,2.0138306 2.7176636,2.1791951 h 0.08785 L 2.9708781,2.0138306 3.1357259,2.1791951 H 3.22771 L 3.4571533,1.9497518 V 1.7626831 L 3.2194417,1.5249715 H 1.6986043 A 0.80262381,0.80262381 0 0 0 0.96583252,1.0495483 Z M 0.72657064,1.6040365 A 0.24808373,0.24808373 0 0 1 0.97461751,1.8520833 0.24808373,0.24808373 0 0 1 0.72657064,2.1001302 0.24808373,0.24808373 0 0 1 0.47852376,1.8520833 0.24808373,0.24808373 0 0 1 0.72657064,1.6040365 Z" />
  </g>
</svg>
