<?xml version="1.0" encoding="UTF-8" standalone="no"?>
<!-- Created with Inkscape (http://www.inkscape.org/) -->

<svg
   width="14"
   height="14"
   viewBox="0 0 14 14"
   fill="none"
   version="1.1"
   id="svg3"
   xml:space="preserve"
   xmlns="http://www.w3.org/2000/svg"
   xmlns:svg="http://www.w3.org/2000/svg"><defs
     id="defs3" /><path
     id="path3"
     style="fill:#353535;fill-opacity:1;stroke:none;stroke-width:0.254679"
     d="m 6.9678914,0.19683995 c -0.341468,0.00529 -0.6011629,-0.00364 -0.8953919,-0.00232 l -2.7227888,0.01227 c -0.6977486,0.00314 -1.6257145,0.044913 -2.0932451,0.5864858 C 0.66434719,1.4791467 0.72113349,2.4156406 0.72113349,3.2305916 c 0,0.9753145 -0.1782273,2.4627812 0.32341811,3.4518442 0.3246702,0.4830193 0.6980969,0.6954003 1.1843265,0.9194336 0.2646524,0.065929 0.5085523,0.085449 0.7827149,0.085449 v 3.3188476 c -0.7810701,0.01846 -0.9245606,0.70929 -0.9245606,1.276611 0,0.258254 -0.057149,0.581144 0.023926,0.830567 0.1786833,0.549708 0.708335,0.819666 1.3278808,0.765625 0.9900515,-0.08637 0.9245606,-0.927193 0.9245606,-1.596192 0,-0.570844 -0.030389,-1.257196 -0.8527832,-1.276611 V 7.6873185 h 6.1164561 c 0.9263673,0 1.9955153,0.1370594 2.7753903,-0.4050293 0.389415,-0.270684 0.525389,-0.6483899 0.615235,-1.0629883 0.08333,-0.3845324 0.11277,-1.1048832 0.09542,-1.5571112 C 13.031453,2.1117073 11.743639,1.8949152 9.5570027,1.8152481 9.5510557,1.6176037 9.5044657,1.4294066 9.4373737,1.2410294 9.0914707,0.26940195 7.9922976,0.18043695 6.9678914,0.19683995 Z M 7.991573,1.0068986 c 0.9486697,0.2009938 1.0136337,1.6775833 0.070068,1.9362792 -0.3925112,0.1076196 -0.9653333,0.09411 -1.3746316,0.09411 h -2.917236 c -0.4614972,0 -1.1144016,0.038548 -1.5408957,-0.1368349 C 1.3628013,2.5442652 1.5928828,1.1327334 2.5142781,0.99493565 2.8769267,0.94072175 3.3090384,0.92720825 3.6769958,0.92334655 l 2.3377023,-0.024534 c 0.6215372,-0.00652 1.4951008,0.00607 1.9768749,0.10808605 z" /><path
     d="M 8.2116398,13.401429 13.404691,8.3540541 m 0,0 -2.449128,-0.017555 m 2.46595,0.017555 -0.0085,2.5023839"
     stroke="#208a3c"
     stroke-linecap="round"
     stroke-linejoin="round"
     id="path1-5"
     style="fill:none;fill-opacity:0.992157;stroke:#476acf;stroke-width:1.108;stroke-dasharray:none;stroke-opacity:0.996078" /></svg>
