<?xml version="1.0" encoding="UTF-8" standalone="no"?>
<!-- Created with Inkscape (http://www.inkscape.org/) -->

<svg
   width="16"
   height="16"
   viewBox="0 0 16 16"
   fill="none"
   version="1.1"
   id="svg3"
   xml:space="preserve"
   xmlns="http://www.w3.org/2000/svg"
   xmlns:svg="http://www.w3.org/2000/svg"><defs
     id="defs3" /><path
     id="path3"
     style="fill:#e5a822;stroke:none;stroke-width:0.199102"
     d="m 11.192379,9.1067325 c -0.266951,0.0041 -0.469974,-0.00287 -0.699995,-0.00178 l -2.128607,0.00958 C 7.8182955,9.1169933 7.0928348,9.1496363 6.7273313,9.5730294 6.2644281,10.109227 6.3088222,10.841354 6.3088222,11.478461 c 0,0.762477 -0.1393337,1.925341 0.25284,2.698565 0.253819,0.377613 0.5457546,0.543646 0.9258764,0.718789 0.2068986,0.05154 0.3975738,0.06681 0.6119067,0.06681 V 17.55721 H 8.4895689 V 14.96262 H 13.27126 c 0.72421,0 1.560044,0.10715 2.16973,-0.316642 0.304434,-0.211614 0.410736,-0.506895 0.480974,-0.831017 0.06515,-0.300618 0.08816,-0.86377 0.0746,-1.21731 -0.06385,-1.993909 -1.070626,-2.163391 -2.780083,-2.225673 -0.0047,-0.154512 -0.04107,-0.301641 -0.09352,-0.4489092 C 12.852538,9.163476 11.993233,9.0939243 11.192378,9.1067489 Z m 0.800289,0.6332824 c 0.741646,0.1571324 0.792432,1.3114921 0.05478,1.5137341 -0.306856,0.08414 -0.754673,0.07358 -1.074653,0.07358 H 8.692173 c -0.3607872,0 -0.871211,0.03014 -1.2046333,-0.106972 C 6.8104631,10.941893 6.9903351,9.838394 7.7106586,9.7306666 7.9941682,9.6882827 8.3319823,9.677721 8.6196415,9.6746974 l 1.8275565,-0.019181 c 0.485902,-0.00506 1.168832,0.00479 1.545471,0.084494 z" /></svg>
