<?xml version="1.0" encoding="UTF-8" standalone="no"?>
<!-- Created with Inkscape (http://www.inkscape.org/) -->

<svg
   width="14"
   height="14"
   viewBox="0 0 3.7041666 3.7041666"
   version="1.1"
   id="svg1"
   xmlns="http://www.w3.org/2000/svg"
   xmlns:svg="http://www.w3.org/2000/svg">
  <defs
     id="defs1" />
  <g
     id="layer1">
    <path
       id="path1"
       style="fill:#353535;fill-opacity:1;stroke:none;stroke-width:1.51226;stroke-linejoin:round;stroke-dasharray:none"
       d="M 1.8520833,0.23202718 A 1.6198409,1.6198409 0 0 0 0.23202718,1.8520833 1.6198409,1.6198409 0 0 0 1.8520833,3.4721395 1.6198409,1.6198409 0 0 0 3.4721395,1.8520833 1.6198409,1.6198409 0 0 0 1.8520833,0.23202718 Z m 0,0.12867432 A 1.4914211,1.4914211 0 0 1 3.3434652,1.8520833 1.4914211,1.4914211 0 0 1 1.8520833,3.3434652 1.4914211,1.4914211 0 0 1 0.3607015,1.8520833 1.4914211,1.4914211 0 0 1 1.8520833,0.3607015 Z" />
    <path
       id="path1-5-2"
       style="fill:#353535;fill-opacity:1;stroke:none;stroke-width:1.392;stroke-linejoin:round;stroke-dasharray:none"
       d="M 1.8520833,0.3607015 A 1.4914211,1.4914211 0 0 0 1.379244,0.44079997 L 0.44079997,1.379244 A 1.4914211,1.4914211 0 0 0 0.3607015,1.8520833 1.4914211,1.4914211 0 0 0 0.38809001,2.1208008 L 2.1233846,0.38550618 A 1.4914211,1.4914211 0 0 0 1.8520833,0.3607015 Z M 2.3859009,0.46043701 0.46250407,2.3838338 A 1.4914211,1.4914211 0 0 0 0.71726888,2.8184326 L 2.8189494,0.71675212 A 1.4914211,1.4914211 0 0 0 2.3859009,0.46043701 Z M 2.9874146,0.88573405 0.88625081,2.9868978 A 1.4914211,1.4914211 0 0 0 1.3203328,3.2416626 L 3.2437297,1.3182658 A 1.4914211,1.4914211 0 0 0 2.9874146,0.88573405 Z M 3.3186605,1.5812988 1.5838826,3.3160767 a 1.4914211,1.4914211 0 0 0 0.2682007,0.027388 1.4914211,1.4914211 0 0 0 0.4728394,-0.080098 l 0.938444,-0.938444 A 1.4914211,1.4914211 0 0 0 3.3434652,1.8520833 1.4914211,1.4914211 0 0 0 3.3186605,1.5812988 Z" />
  </g>
</svg>
