<?xml version="1.0" encoding="UTF-8" standalone="no"?>
<!-- Created with Inkscape (http://www.inkscape.org/) -->

<svg
   width="16"
   height="16"
   viewBox="0 0 16 16"
   fill="none"
   version="1.1"
   id="svg3"
   xml:space="preserve"
   xmlns="http://www.w3.org/2000/svg"
   xmlns:svg="http://www.w3.org/2000/svg"><defs
     id="defs3" /><path
     id="path3"
     style="fill:#e5a822;stroke:none;stroke-width:0.291062"
     d="M 8.4570312,0.1015625 C 8.0667821,0.1076125 7.7699879,0.09739922 7.4337262,0.09891419 L 4.3219676,0.11293365 C 3.5245406,0.11652632 2.4640081,0.16426228 1.9296875,0.78320312 1.2529807,1.5670557 1.3178793,2.6373345 1.3178793,3.568707 c 0,1.1146452 -0.2036883,2.8146071 0.3696207,3.9449649 0.3710517,0.552022 0.7978251,0.7947431 1.353516,1.0507812 0.3024599,0.075347 0.5812026,0.097656 0.8945313,0.097656 v 3.7929689 c -0.8926515,0.0211 -1.0566407,0.810617 -1.0566407,1.458984 0,0.295148 -0.065313,0.664165 0.027344,0.949219 0.2042095,0.628238 0.8095258,0.936762 1.5175781,0.875 1.1314874,-0.09871 1.0566407,-1.059649 1.0566407,-1.824219 0,-0.652393 -0.03473,-1.436795 -0.9746094,-1.458984 V 8.6621094 h 6.990235 c 1.058706,0 2.280589,0.1566394 3.171875,-0.4628906 0.445045,-0.3093531 0.600444,-0.741017 0.703125,-1.2148438 0.09523,-0.4394655 0.12888,-1.2627236 0.109053,-1.7795556 C 15.386815,2.2899824 13.915028,2.04222 11.416016,1.9511719 11.409219,1.7252925 11.355973,1.5102101 11.279297,1.2949219 10.883979,0.18449052 9.6277812,0.08281621 8.4570312,0.1015625 Z M 9.6269531,1.0273438 C 10.711147,1.2570511 10.785392,2.9445819 9.7070311,3.2402344 9.2584469,3.3632282 8.6037931,3.3477887 8.1360236,3.3477887 H 4.8020392 c -0.5274254,0 -1.2736018,0.044055 -1.7610236,-0.1563828 C 2.051214,2.7843342 2.3141643,1.1711551 3.3671875,1.0136719 3.781643,0.95171314 4.2754849,0.93626914 4.6960077,0.93185577 l 2.6716598,-0.0280389 c 0.7103282,-0.007455 1.7086866,0.006937 2.2592856,0.12352693 z" /></svg>
