<?xml version="1.0" encoding="UTF-8" standalone="no"?>
<!-- Created with Inkscape (http://www.inkscape.org/) -->

<svg
   width="14"
   height="14"
   viewBox="0 0 3.7041667 3.7041666"
   version="1.1"
   id="svg1"
   xmlns="http://www.w3.org/2000/svg"
   xmlns:svg="http://www.w3.org/2000/svg">
  <defs
     id="defs1" />
  <path
     id="rect2"
     style="fill:#353535;fill-opacity:1;stroke:#6db3ff;stroke-width:0;stroke-linecap:round;stroke-linejoin:round;stroke-opacity:0.996078"
     d="m 2.9317958,0.05736088 a 0.04337783,0.04337783 0 0 0 -0.043284,0.04328411 0.04337783,0.04337783 0 0 0 0.014238,0.0318935 l -5.697e-4,0.001139 0.1600373,0.16003723 -0.362789,0.362789 -0.2836248,-0.28362468 a 0.06036992,0.06036992 0 0 0 -0.00399,-0.004557 0.06036992,0.06036992 0 0 0 -0.044424,-0.0199335 0.06036992,0.06036992 0 0 0 -0.06037,0.0603699 0.06036992,0.06036992 0 0 0 0.019933,0.0444231 l -5.695e-4,0.00114 0.08372,0.0837206 -1.70288357,1.70345616 c -0.001399,8.525e-4 -0.00273,0.00181 -0.003986,0.00284 l -5.695e-4,0.00114 c -0.006999,0.00625 -0.0111148,0.015112 -0.0113906,0.02449 2.7354e-4,0.00882 0.003949,0.017183 0.010252,0.02335 0.001057,0.00122 0.002206,0.00237 0.003418,0.00342 l 0.21528137,0.2158509 -0.10479303,0.1053622 -0.002848,0.00228 5.6945e-4,5.696e-4 a 0.03986692,0.03986692 0 0 0 -0.0113905,0.027337 0.03986692,0.03986692 0 0 0 0.005126,0.019364 l -5.6946e-4,5.694e-4 0.001708,0.00171 a 0.03986692,0.03986692 0 0 0 0.01196,0.01196 l 0.0558137,0.055814 -0.80531182,0.8053119 -0.0011396,0.080873 0.08315102,0.00114 0.80531187,-0.8053119 0.0848598,0.084859 a 0.03986692,0.03986692 0 0 0 0.00399,0.00399 l 0.00455,0.00455 5.696e-4,-5.695e-4 a 0.03986692,0.03986692 0 0 0 0.021072,0.00569 0.03986692,0.03986692 0 0 0 0.026768,-0.010822 l 0.00342,-0.00284 a 0.03986692,0.03986692 0 0 0 0.00342,-0.00455 L 1.2072685,2.7996376 1.427106,3.0189058 c 3.625e-4,5.808e-4 7.443e-4,0.00115 0.00114,0.00171 0.00265,0.00411 0.00614,0.00761 0.010252,0.010252 5.581e-4,3.967e-4 0.00113,7.806e-4 0.00171,0.00114 l 0.00284,0.00284 5.695e-4,-5.695e-4 c 0.00418,0.00161 0.00862,0.00238 0.013099,0.00228 0.00967,-2.578e-4 0.018777,-0.00461 0.02506,-0.01196 l 0.00228,-0.00171 c 4.079e-4,-7.449e-4 7.959e-4,-0.00151 0.00114,-0.00228 l 1.7040262,-1.7034567 0.063217,0.063218 a 0.06036992,0.06036992 0 0 0 0.045562,0.021072 0.06036992,0.06036992 0 0 0 0.06037,-0.06037 0.06036992,0.06036992 0 0 0 -0.018794,-0.044424 L 3.0434232,1.0004984 3.4062122,0.63770939 3.5673885,0.79888566 a 0.04337783,0.04337783 0 0 0 0.033033,0.0153773 0.04337783,0.04337783 0 0 0 0.043284,-0.0432841 0.04337783,0.04337783 0 0 0 -0.013669,-0.0318936 L 2.9665369,0.07501623 A 0.04337783,0.04337783 0 0 0 2.9636949,0.07159865 0.04337783,0.04337783 0 0 0 2.931801,0.05736047 Z" />
</svg>
